<?xml version="1.0" encoding="iso-8859-1"?>
<!-- Generator: Adobe Illustrator 19.0.0, SVG Export Plug-In . SVG Version: 6.00 Build 0)  -->
<svg version="1.1" id="Layer_1" xmlns="http://www.w3.org/2000/svg" xmlns:xlink="http://www.w3.org/1999/xlink" x="0px" y="0px"
	 viewBox="0 0 511.999 511.999" style="enable-background:new 0 0 511.999 511.999;" xml:space="preserve">
<g>
	<g>
		<path d="M396.529,75.7l-11.733-34.027V10.199C384.796,4.567,380.228,0,374.596,0H137.4C131.767,0,127.2,4.567,127.2,10.199v31.475
			L115.468,75.7c-0.369,1.07-0.557,2.193-0.557,3.325v390.822c0,5.274,4.003,9.613,9.138,10.143l4.565,23.737
			c0.924,4.802,5.125,8.273,10.016,8.273h234.74c4.891,0,9.092-3.471,10.016-8.273l4.565-23.737
			c5.133-0.531,9.138-4.869,9.138-10.143V79.023C397.086,77.892,396.898,76.769,396.529,75.7z M147.599,20.398h216.799v12.785
			H147.599V20.398z M135.309,459.647V80.733l9.363-27.151h148.814c1.964,9.581,22.903,114.069,21.754,207.209
			c-1.056,85.558-30.313,178.052-37.265,198.857H135.309z M364.944,491.602H147.053l-2.222-11.556h222.334L364.944,491.602z
			 M376.687,459.648h-21.119c-1.724-6.59-4.64-19.415-7.752-40.454c-0.825-5.573-6.013-9.419-11.582-8.597
			c-5.572,0.825-9.42,6.01-8.597,11.582c2.568,17.353,5.036,29.499,6.917,37.468h-35.082
			c9.788-30.207,35.144-116.146,36.162-198.606c1.082-87.652-16.883-184.767-21.348-207.46h53.038l9.363,27.151V459.648z"/>
	</g>
</g>
<g>
	<g>
		<path d="M166.896,213.847c-5.633,0-10.199,4.567-10.199,10.199v204.015c0,5.632,4.566,10.199,10.199,10.199
			c5.633,0,10.199-4.567,10.199-10.199V224.046C177.095,218.413,172.529,213.847,166.896,213.847z"/>
	</g>
</g>
<g>
	<g>
		<path d="M166.896,135.19c-5.633,0-10.199,4.567-10.199,10.199v24.581c0,5.632,4.566,10.199,10.199,10.199
			c5.633,0,10.199-4.567,10.199-10.199V145.39C177.095,139.757,172.529,135.19,166.896,135.19z"/>
	</g>
</g>
<g>
</g>
<g>
</g>
<g>
</g>
<g>
</g>
<g>
</g>
<g>
</g>
<g>
</g>
<g>
</g>
<g>
</g>
<g>
</g>
<g>
</g>
<g>
</g>
<g>
</g>
<g>
</g>
<g>
</g>
</svg>
